<svg xmlns="http://www.w3.org/2000/svg" version="1.1" xmlns:xlink="http://www.w3.org/1999/xlink" xmlns:svgjs="http://svgjs.dev/svgjs" width="100%" height="100%" viewBox="0 0 1000 600"><rect width="1000" height="600" x="0" y="0" fill="#8bd8bd"/><g><circle r="166.66666666666666" cx="298.1950327555338" cy="320.41725239754646" fill="#243665" transform="matrix(0.9503651535251951,0,0,0.9503651535251951,0,-4.513419877144983)"/><path d="M275.38764550375606 394.7717690235696L268.8097765484587 394.7717690235696L268.041333913494 393.69594933461906Q269.11715360244455 391.8516870107039 270.7462519885696 387.6406213710976Q272.3753503746947 383.4295557314913 274.74215369038575 377.25127694637547L274.74215369038575 377.25127694637547Q276.89379306828687 371.2266866882526 279.5987111433624 363.6959488655989Q282.303629218438 356.1959487483439 285.2237112313037 347.77381746913125Q288.1437932441694 339.32094848452004 291.1560883732309 330.40701391893003Q294.19912120769084 321.49307935334 297.1192032205565 312.7020956093444Q300.0392852334222 303.88037415995007 302.7134656030993 295.61193140773037Q305.4183836781748 287.34348865551067 307.6929738776703 280.12012788684297L307.6929738776703 280.12012788684297Q299.1478917768633 296.4418494534922 289.2810883439171 312.54840708235145Q279.3835472055723 328.62422700581203 269.2401044240388 343.43980100793055Q259.06592393710685 358.2553750100492 249.29133362035637 371.3803752152454Q239.51674330360598 384.50537542044174 231.09461202439334 394.7717690235696L231.09461202439334 394.7717690235696Q230.1110054516386 394.894719845164 228.91223494109371 394.9869329613597L228.91223494109371 394.9869329613597Q227.8364152521432 395.10988378295406 226.26879227681528 395.1406214883526Q224.7011693014874 395.20209689914975 222.76469386137646 395.20209689914975L222.76469386137646 395.20209689914975Q220.7052675996712 395.20209689914975 218.49215281097298 395.10988378295406Q216.27903802227476 394.9869329613597 213.6970707687935 394.7717690235696L213.6970707687935 394.7717690235696L213.91223470658363 393.2656214590389Q214.4347756983596 393.2656214590389 215.69502161970163 392.6201296456686Q216.92452983564507 391.9746378322983 218.12330034618995 390.77586732175337L218.12330034618995 390.77586732175337Q231.40198907837922 377.15906383017966 244.9265794537571 361.0525062013205Q258.42043212373653 344.94594857246125 271.0228913371568 327.67135813845584Q283.59461284517863 310.36602999905176 294.7216621994669 292.599636278669Q305.84871155375504 274.8332425582861 314.5167444761564 257.7430783566722L314.5167444761564 257.7430783566722L315.4696133435125 253.74717665485593Q315.4696133435125 252.2410290903252 314.8241215301422 251.5955372769549L314.8241215301422 251.5955372769549Q311.9040395172765 251.81070121474502 308.67658045042504 251.96438974173793Q305.4183836781748 252.1180782687309 302.4060885491134 252.45619302811534Q299.36305571465334 252.76357008210118 296.71961305037496 253.22463566308Q294.07617038609646 253.6549635386602 292.4470719999715 254.3004553520305L292.4470719999715 254.3004553520305Q291.0638752570351 254.82299634380647 289.43477687091 256.0832422651485Q287.80567848478495 257.31275048109194 286.4224817418485 259.1570128050071Q285.00854729351363 261.0012751289223 284.086416131556 263.2143899176205Q283.1642849695984 265.4275047063187 283.1642849695984 267.7020949058141L283.1642849695984 267.7020949058141Q283.1642849695984 269.0852916487505 283.37944890738856 271.20619332125295Q283.59461284517863 273.2963572883568 284.24010465854894 275.4787343716564L284.24010465854894 275.4787343716564L282.9491210318083 276.769717998397Q277.4470717654614 272.77381629658083 274.18887499321124 268.378324424583Q270.9614159263597 264.01357025798376 270.9614159263597 260.23283249395763L270.9614159263597 260.23283249395763Q270.9614159263597 258.0811931160566 272.40608808009324 255.46848815717678Q273.88149793922537 252.88652090369553 276.0331373171264 250.6734061149973Q278.1847766950275 248.4602913262991 280.67453083231294 246.9541437617684Q283.1642849695984 245.41725849183908 285.1007604097093 245.41725849183908L285.1007604097093 245.41725849183908Q288.45117029815526 245.41725849183908 293.2769900457333 245.60168472423058Q298.0720720879127 245.75537325122352 303.4204328272667 245.97053718901364Q308.76879356662073 246.1857011268037 314.178629716772 246.33938965379667Q319.5884658669231 246.5238158861882 324.1376462659139 246.5238158861882L324.1376462659139 246.5238158861882Q326.0741217060248 246.5238158861882 327.5802692705555 246.5238158861882Q329.0864168350862 246.5238158861882 330.43887587262407 246.46234047539102Q331.7913349101618 246.40086506459383 333.26674476929395 246.33938965379667Q334.7114169230275 246.30865194839808 336.64789236313845 246.0627503052094L336.64789236313845 246.0627503052094L337.29338417650877 247.1693076995585Q336.4327284253484 249.65906183684396 334.5577283960346 255.09963569239375Q332.6519906613222 260.57094725334207 330.1314988186382 268.07094737059714Q327.5802692705555 275.5709474878522 324.44502331989975 284.82299681282666Q321.3097773692439 294.04430843240254 317.8978920700008 304.1570135085374Q314.5167444761564 314.2697185846722 310.981908355319 324.8127515363873Q307.4778099398801 335.3250467827038 304.1274000514343 345.3762764480415L304.1274000514343 345.3762764480415Q319.895842920909 323.98283349062547 334.28108904744727 300.80660362009144Q348.66633517398566 277.6303737495574 360.86920421722436 253.74717665485593L360.86920421722436 253.74717665485593Q360.86920421722436 251.90291433094077 359.67043370667955 251.1652094013747L359.67043370667955 251.1652094013747L359.67043370667955 249.87422577463408Q362.59051571954524 248.98283231807508 365.0802698568307 248.39881591550196Q367.57002399411624 247.8147995129288 370.09051583680025 247.4152093427472Q372.64174538488294 247.04635687796414 375.56182739774863 246.83119294017402Q378.4819094106143 246.61602900238393 382.2626471746404 246.5238158861882L382.2626471746404 246.5238158861882L382.69297505022064 247.1693076995585Q381.6171553612701 249.96643889082983 379.40404057257194 256.45209472993156Q377.1909257838737 262.93775056903326 374.14789294941363 271.9131605454204Q371.13559782035213 280.88857052180765 367.508548583319 291.7389805275085Q363.88149934628586 302.58939053320944 360.008548466064 314.2082431738751Q356.10485988044354 325.8270958145407 352.2626467056202 337.53816157140204Q348.4511712361956 349.27996503366194 344.91633511535815 359.97668651236995Q341.4122366999193 370.67340799107797 338.4921546870536 379.6488179674652Q335.5720726741879 388.62422794385236 333.63559723407707 394.7717690235696L333.63559723407707 394.7717690235696Q332.3446136073363 394.9869329613597 330.83846604280563 395.10988378295406L330.83846604280563 395.10988378295406Q328.01059714613575 395.41726083693993 323.58436756873937 395.41726083693993L323.58436756873937 395.41726083693993Q321.43272819083825 395.41726083693993 319.00444946434993 395.263572309947Q316.54543303246305 395.10988378295406 314.0864166005762 394.7717690235696L314.0864166005762 394.7717690235696L313.44092478720586 393.69594933461906Q314.7319084139465 391.2984083135293 317.4675641944207 384.0750475448616Q320.23395768029343 376.8209490707952 323.86100691732656 366.6775062892617Q327.4880561543598 356.50332580232975 331.6991217939661 344.3619321698882Q335.91018743357233 332.18980083204804 340.12125307317876 319.77176785101915Q344.33231871278497 307.3537348699904 348.11305647681115 295.61193140773037Q351.8937942408372 283.90086565086904 354.8138762537029 274.618078620496L354.8138762537029 274.618078620496Q348.66633517398566 286.8209476637347 341.6888760485066 298.9623412961763Q334.7114169230275 311.13447263401645 327.27289221656963 322.8455383908778Q319.8036298047132 334.5873418531378 312.1806788658638 345.59144038583156Q304.5577279270144 356.6262766239241 297.3343671583467 366.46234235147165L297.3343671583467 366.46234235147165Q291.4942031326153 374.45414575510415 285.93067845547114 381.5238179967789Q280.36715377832707 388.62422794385236 275.38764550375606 394.7717690235696L275.38764550375606 394.7717690235696Z " fill="#8bd8bd" transform="matrix(0.9503651535251951,0,0,0.9503651535251951,0,-4.513419877144983)"/><path d="M587.4647705674704 392.39936549608126L586.5705828354832 391.09534172026645Q588.5079895881223 386.51262959383155 591.4886153614133 378.65122911677645Q594.4319833125381 370.78982863972135 597.5616403744938 361.62440438685144Q600.6912974364493 352.45898013398164 603.8582123205709 342.88371983728416Q606.9878693825266 333.3084595405868 609.4096278233255 325.33528559703336Q611.8313862641245 317.3621116534798 613.3962147951023 311.9224696172238Q614.9983011482462 306.48282758096764 614.9983011482462 305.43960856031583L614.9983011482462 305.43960856031583Q614.9983011482462 303.5767174520089 613.9550821275943 303.5767174520089L613.9550821275943 303.5767174520089Q612.6138005296133 303.5767174520089 609.8194638671531 306.4083119366354Q606.9878693825266 309.2399064212618 603.597407565408 313.33826685953704Q600.1696879261234 317.47388511997826 596.6301948203403 322.05659724641316Q593.1279595367233 326.6393093728482 590.3708806964291 330.17880247863127L590.3708806964291 330.17880247863127Q587.613801856135 338.1892342443508 584.5959182606779 346.68401769823026Q581.5780346652206 355.2160589742758 578.7836980027604 363.45003767299227Q575.9521035181339 371.7212741938748 573.6048607216673 379.17283862710235Q571.2203601030343 386.6244030603299 569.6555315720566 392.39936549608126L569.6555315720566 392.39936549608126Q568.2397343297433 392.66017025124427 566.5258745101011 392.8092015399088L566.5258745101011 392.8092015399088Q563.5079909146439 393.18177976157017 558.664474033046 393.18177976157017L558.664474033046 393.18177976157017Q556.4290047030777 393.18177976157017 553.9327306179465 392.9954906507395Q551.4737143549813 392.8092015399088 549.0892137363486 392.39936549608126L549.0892137363486 392.39936549608126L548.1950260043612 391.09534172026645Q548.8284089811856 389.79131794445163 550.4677531564956 385.73021532834264Q552.1070973318057 381.66911271223364 554.2680510174417 375.89415027648226Q556.4290047030777 370.1191878407309 558.9997944325412 363.0402016291647Q561.5333263398385 355.99847323976473 564.0296004249698 348.65868227303554Q566.5258745101011 341.31889130630645 568.8731173065677 334.23990509474027Q571.2203601030343 327.1609188831741 573.008735567009 321.27418298092437Q574.7598532088174 315.38744707867454 575.8775878738016 311.2518288182333Q576.9953225387857 307.116210557792 576.9953225387857 305.7004133154787L576.9953225387857 305.7004133154787Q576.9953225387857 304.24735825099935 576.6600021392904 303.46494398551044Q576.3619395619613 302.68252972002165 576.0638769846322 302.0118889210311L576.0638769846322 302.0118889210311Q575.6912987629709 301.49027941070517 575.2814627191434 300.96866990037927L575.2814627191434 300.96866990037927L575.2814627191434 298.994005325574Q578.2993463146005 297.16837203943317 582.3604489307096 295.7153169749538Q586.4215515468185 294.29951973264065 590.2218494077646 293.3680741784872L590.2218494077646 293.3680741784872Q594.5437567790366 292.32485515783526 599.275500194136 291.54244089234646L599.275500194136 291.54244089234646L599.7971097044621 292.32485515783526Q599.7971097044621 293.8896836888131 599.1264689054716 297.3174033280977Q598.4930859286472 300.70786514521626 597.636156018826 304.6571942948269Q596.7792261090048 308.56926562227136 595.8105227326852 312.4440791275497Q594.8045615341995 316.2816348106619 594.1711785573751 318.6661354292946L594.1711785573751 318.6661354292946Q597.9714764183212 313.5618137925338 601.8835477457657 308.494749977939Q605.8328768953763 303.46494398551044 609.4841434676579 299.4783570137338Q613.1354100399393 295.4545122197909 616.2278092797288 292.99549595682583Q619.3202085195181 290.49922187169454 621.5184200273203 290.49922187169454L621.5184200273203 290.49922187169454Q622.4498655814738 290.49922187169454 624.6108192671097 291.28163613718345Q626.7717729527457 292.06405040267236 629.007242282714 293.62887893365007Q631.2427116126822 295.1937074646279 632.9938292544907 297.68998154975907Q634.7449468962992 300.18625563489036 634.8939781849637 303.5767174520089L634.8939781849637 303.5767174520089Q634.8939781849637 304.76896776132526 633.5899544091488 308.9791016660988Q632.285930633334 313.15197774870626 630.5720708136918 318.40533067413173L630.5720708136918 318.40533067413173Q634.6331734298008 313.3010090373708 638.768791690242 308.30846086710835Q642.8671521285172 303.3159126968459 646.6301921672972 299.40384136940145Q650.3559743839108 295.4545122197909 653.5601470901987 292.99549595682583Q656.7643197964866 290.49922187169454 658.9997891264549 290.49922187169454L658.9997891264549 290.49922187169454Q659.8939768584422 290.49922187169454 662.278477477075 291.3561517815157Q664.6257202735416 292.2130816913369 667.1219943586729 293.9641993331453Q669.6182684438041 295.7153169749538 671.5184173742772 298.43513799308187Q673.4185663047502 301.1177011890438 673.5303397712486 304.9179990499898L673.5303397712486 304.9179990499898Q673.5303397712486 306.22202282580463 671.7047064851077 310.9165084187381Q669.8790731989671 315.64825183383755 667.1965100030051 322.2056285350777Q664.5139468070432 328.7257474141519 661.3470319229215 336.47537442470855Q658.2173748609661 344.1877436130991 655.534811665004 351.67656586849273Q652.8522484690421 359.12813030172026 650.9893573607352 365.536475714296Q649.1637240745946 371.9820789490377 649.1637240745946 376.0431815651468L649.1637240745946 376.0431815651468Q649.1637240745946 377.60801009612453 649.4990444740898 378.3159087172812Q649.8343648735851 379.0238073384378 650.9893573607352 379.0238073384378L650.9893573607352 379.0238073384378Q652.4424124252147 378.91203387193946 655.3112647320073 377.5334944517923Q658.2173748609661 376.15495503164516 662.0176727219119 373.397876191351Q665.817970582858 370.6407973510568 670.1771357762963 366.65421037928013Q674.5735587919004 362.66762340750336 678.8954661631725 357.30249701557955L678.8954661631725 357.30249701557955L681.8015762921312 359.9105445672092Q676.2874186115429 366.8404994901108 669.4692371551395 373.06255579185574Q662.6510556987363 379.2846120936008 655.9819055309978 384.01635550870026Q649.312755363259 388.74809892379983 643.4260194610093 391.4679199419278Q637.5020257365934 394.224998782222 633.8507591643119 394.224998782222L633.8507591643119 394.224998782222Q633.1801183653214 394.224998782222 632.1368993446696 393.70338927189607Q631.0936803240177 393.18177976157017 630.0504613033658 391.9895294522537Q629.007242282714 390.83453696510344 628.2248280172251 388.74809892379983Q627.4424137517361 386.6244030603299 627.4424137517361 383.49474599837436L627.4424137517361 383.49474599837436Q627.4424137517361 381.92991746739654 627.8149919733976 379.5081590265976Q628.2248280172251 377.08640058579863 628.7464375275509 374.5156108563351Q629.268047037877 371.9820789490377 629.7896565482029 369.82112526340177Q630.3112660585288 367.6601715777658 630.5720708136918 366.5796947349478L630.5720708136918 366.5796947349478Q631.7643211230082 361.9969826085129 633.9252748086441 356.29653581709374Q636.0862284942801 350.6333468478408 638.5452447572453 344.448548368262Q641.0415188423764 338.30100771084926 643.6868242161723 332.22798269776877Q646.294871767802 326.1176998625223 648.3813098091056 320.8270891149307Q650.4677478504094 315.499220545173 651.8090294483903 311.5126335733962Q653.1130532242051 307.52604660161944 653.1130532242051 305.43960856031583L653.1130532242051 305.43960856031583Q653.1130532242051 303.5767174520089 652.0698342035533 303.5767174520089L652.0698342035533 303.5767174520089Q650.8775838942369 303.5767174520089 648.0087315874442 306.22202282580463Q645.1026214584855 308.83007037743437 641.6376439970346 312.63036823838036Q638.1726665355839 316.43066609932646 634.4468843189701 320.8270891149307Q630.7211021023563 325.1862543083688 627.7032185068991 328.87477870281646L627.7032185068991 328.87477870281646Q624.0146941124516 340.648250507316 621.145841805659 349.8136747601858Q618.2769894988663 359.0163568352218 615.8924888802335 366.46792126844935Q613.5452460837668 373.919485701677 611.5705815089615 380.14154200342193Q609.5959169341562 386.363598305167 608.0310884031784 392.39936549608126L608.0310884031784 392.39936549608126Q606.6152911608652 392.66017025124427 604.9014313412229 392.8092015399088L604.9014313412229 392.8092015399088Q601.8835477457657 393.18177976157017 597.0400308641678 393.18177976157017L597.0400308641678 393.18177976157017Q594.8045615341995 393.18177976157017 592.3082874490683 392.9954906507395Q589.8492711861032 392.8092015399088 587.4647705674704 392.39936549608126L587.4647705674704 392.39936549608126ZM712.9491156230223 367.1013042452737L712.9491156230223 367.1013042452737Q712.9491156230223 366.98953077877536 713.098146911687 366.5796947349478L713.098146911687 366.5796947349478Q713.2099203781853 366.3188899797848 713.4707251333483 365.275670959133L713.4707251333483 365.275670959133Q709.4096225172392 370.52902388455846 705.2367464346318 375.7823768099838Q701.0266125298582 380.99847191324307 697.1145412024138 385.1340901736844Q693.1652120528032 389.2697084341256 689.849265880017 391.87775598575536Q686.4960618850645 394.485803537385 684.2605925550962 394.485803537385L684.2605925550962 394.485803537385Q683.3664048231091 394.485803537385 681.0191620266422 393.70338927189607Q678.6346614080095 392.92097500640716 676.2129029672104 391.16985736459867Q673.7911445264116 389.38148190062407 671.8164799516063 386.6244030603299Q669.8790731989671 383.8673242200357 669.7300419103025 380.1042841812558L669.7300419103025 380.1042841812558Q669.7300419103025 378.7630025832749 671.3693860856125 373.658680946514Q673.0087302609226 368.55435930975307 675.5795199903861 361.2890839873562Q678.1130518976835 354.02380866495935 681.0191620266422 345.5662830332461Q683.8880143334349 337.1087574015329 686.4215462407323 329.0610678136471Q688.9923359701958 321.01337822576136 690.6316801455058 314.1951967693582Q692.2710243208159 307.377015312955 692.2710243208159 303.5767174520089L692.2710243208159 303.5767174520089Q692.2710243208159 302.5334984313571 692.0102195656528 301.7510841658682Q691.7494148104898 300.96866990037927 691.4886100553271 300.44706039005337L691.4886100553271 300.44706039005337Q691.0787740114994 299.92545087972735 690.706195789838 299.5156148358999L690.706195789838 299.5156148358999L690.706195789838 297.68998154975907Q693.5750480966307 295.86434826361835 697.6361507127398 294.6348401321359Q701.6972533288487 293.3680741784872 705.4975511897948 292.7346912016628L705.4975511897948 292.7346912016628Q709.8194585610667 291.9522769361739 714.5512019761662 291.54244089234646L714.5512019761662 291.54244089234646L715.0728114864922 292.32485515783526Q714.1413659323388 299.2548100807369 711.9058966023705 307.7123357124502Q709.6704272724022 316.16986134416345 706.9506062542742 324.99996519753813Q704.19352741398 333.8673268730789 701.2501594628551 342.5111416156228Q698.3067915117302 351.1549563581668 695.810517426599 358.4574895027298Q693.3142433414677 365.7972804694589 691.7494148104898 371.3859537943796Q690.1845862795122 376.93736929713407 690.1845862795122 379.5454168487637L690.1845862795122 379.5454168487637Q690.1845862795122 381.40830795707063 691.227805300164 381.40830795707063L691.227805300164 381.40830795707063Q692.1219930321514 381.40830795707063 693.9848841404581 379.88073724825904Q695.810517426599 378.39042436161344 698.232275867398 375.9686659208145Q700.6540343081969 373.54690748001553 703.4111131484912 370.52902388455846Q706.1681919887852 367.51114028910126 708.8880130069132 364.3069675828134Q711.6450918472075 361.10279487652554 714.0668502880065 358.1594269254007Q716.4886087288054 355.2160589742758 718.3142420149462 352.98058964430754L718.3142420149462 352.98058964430754Q720.4379378784159 347.0938537420577 722.9342119635472 339.8658362418271Q725.3932282265124 332.67507656376245 727.7032132008129 325.85689510735926Q729.9759403529473 319.0387136509561 731.6152845282573 313.3010090373708Q733.2546287035674 307.52604660161944 733.6644647473948 304.3591317174978L733.6644647473948 304.3591317174978Q733.9252695025579 302.94333447518454 733.6644647473948 302.0864045653634Q733.4036599922318 301.2294746555423 732.9938239484044 300.5960916787179L732.9938239484044 300.5960916787179Q732.4722144380784 299.92545087972735 731.9506049277526 299.5156148358999L731.9506049277526 299.5156148358999L731.9506049277526 297.68998154975907Q734.9684885232097 295.86434826361835 739.0295911393188 294.6348401321359Q743.0906937554277 293.3680741784872 746.8909916163738 292.7346912016628L746.8909916163738 292.7346912016628Q751.2128989876456 291.9522769361739 755.9073845805791 291.54244089234646L755.9073845805791 291.54244089234646L756.4662519130712 292.32485515783526Q755.0131968485917 299.2548100807369 752.5914384077929 307.377015312955Q750.1696799669938 315.499220545173 747.3380854823675 323.9567461768862Q744.5437488199071 332.41427180859955 741.7121543352806 340.61099268514977Q738.8805598506541 348.770455739534 736.6078326985197 355.8494419511002Q734.2978477242192 362.92842816266636 732.882050481906 368.3680701989224Q731.4289954174266 373.80771223517854 731.4289954174266 376.5647910754727L731.4289954174266 376.5647910754727Q731.4289954174266 378.2413930729489 731.7643158169218 378.91203387193946Q732.099636216417 379.5454168487637 733.4036599922318 379.5454168487637L733.4036599922318 379.5454168487637Q734.7076837680466 379.43364338226536 737.6510517191717 378.0551039621182Q740.5944196702966 376.6765645419712 744.3947175312425 373.919485701677Q748.1950153921886 371.1624068613827 752.5914384077929 367.17581988960603Q756.987861423397 363.18923291782926 761.3097687946691 357.82410652590545L761.3097687946691 357.82410652590545L764.1786211014618 360.4321540775351Q758.6644634208734 367.3993668226028 751.84628196447 373.62142312434787Q745.0653583302329 379.8062216039267 738.3216925181622 384.53796501902616Q731.5780267060912 389.2697084341256 725.6540329816752 391.9895294522537Q719.7672970794255 394.746608292548 716.2278039736424 394.746608292548L716.2278039736424 394.746608292548Q715.594420996818 394.746608292548 714.5512019761662 394.224998782222Q713.4707251333483 393.70338927189607 712.4275061126963 392.5483967847458Q711.3842870920445 391.35614647542945 710.6018728265557 389.30696625629184Q709.8194585610667 387.29504385932034 709.8194585610667 384.1653867973648L709.8194585610667 384.1653867973648Q709.8194585610667 382.5633004442209 710.1920367827282 380.1042841812558Q710.6018728265557 377.60801009612453 711.1234823368815 375.03722036666113Q711.6450918472075 372.50368845936373 712.1667013575335 370.34273477372767Q712.6883108678593 368.1817810880917 712.9491156230223 367.1013042452737ZM802.9640139764111 289.45600285104274L802.9640139764111 289.45600285104274Q805.6838349945391 289.45600285104274 807.6584995693444 291.3561517815157Q809.6331641441499 293.25630071198873 810.7881566313 296.2741843074459Q811.9804069406165 299.2548100807369 812.166696051447 303.20413923034755Q812.390242984444 307.116210557792 811.4587974302905 311.06553970740265L811.4587974302905 311.06553970740265Q810.4155784096387 315.7600253003359 807.3231791698491 318.70339325146085Q804.268037752226 321.6840190247518 800.8403181129412 323.3606210222281L800.8403181129412 323.3606210222281Q796.9282467854968 325.33528559703336 792.1965033703972 326.37850461768517L792.1965033703972 326.37850461768517Q794.9535822106915 321.1251516922598 795.661480831848 317.47388511997826Q796.4066372751707 313.82261854769683 796.4066372751707 310.54393019707663L796.4066372751707 310.54393019707663Q796.4066372751707 309.2399064212618 796.1830903421741 307.8613670011148Q795.9968012313433 306.48282758096764 795.5497073653497 305.2905772716513Q795.1026134993559 304.0983269623348 794.3201992338671 303.3159126968459Q793.500527146212 302.5334984313571 792.4573081255602 302.5334984313571L792.4573081255602 302.5334984313571Q791.3023156384098 302.5334984313571 789.6629714630998 303.3904283411782Q788.0236272877897 304.24735825099935 786.4960565789783 305.8121867819772Q785.0057436923327 307.377015312955 784.0370403160131 309.53796899859094Q783.0310791175274 311.6989226842269 783.0310791175274 314.34422805802274L783.0310791175274 314.34422805802274Q783.0310791175274 315.38744707867454 784.0742981381792 318.5171041406302Q785.117517158831 321.6840190247518 786.6450878676427 326.1922155068545Q788.1354007542883 330.70041198895717 789.9237762182628 336.065538380881Q791.6748938600714 341.4306647728048 793.2024645688831 346.8330489868948Q794.6927774555285 352.19817537881863 795.7359964761803 357.153465726915Q796.7792154968323 362.14601389717745 796.7792154968323 365.7972804694589L796.7792154968323 365.7972804694589Q796.7792154968323 369.48580486390654 794.4319727003655 373.06255579185574Q792.0847299038988 376.6765645419712 788.5452367981158 379.95525289259126Q785.0057436923327 383.23394124321135 780.758351965393 386.02827790567176Q776.4737024162872 388.85987239029816 772.636146733175 390.9463104316019Q768.7613332278967 393.0700062950717 765.9297387432701 394.224998782222Q763.1354020808097 395.41724909153845 762.352987815321 395.41724909153845L762.352987815321 395.41724909153845Q761.1607375060045 395.41724909153845 759.1860729311992 395.0819286920432Q757.24866617856 394.746608292548 755.9073845805791 393.9641940270591L755.9073845805791 393.9641940270591Q754.491587338266 393.18177976157017 752.9267588072881 391.2071151867649Q751.3246724541442 389.2697084341256 749.8343595674986 386.6244030603299Q748.3440466808532 384.01635550870026 747.0772807272045 380.99847191324307Q745.847772595722 377.980588317786 745.1771317967315 375.2235094774918L745.1771317967315 375.2235094774918L761.3097687946691 360.6929588326981Q762.352987815321 366.98953077877536 764.0295898127971 371.83304766037327L764.0295898127971 371.83304766037327Q764.8492619004522 373.919485701677 765.7434496324394 375.9686659208145Q766.6748951865928 377.980588317786 767.8298876737432 379.5454168487637Q769.0221379830597 381.1475032019076 770.4751930475389 382.041690933895Q771.8909902898523 382.97313648804845 773.6048501094946 382.97313648804845L773.6048501094946 382.97313648804845Q776.2128976611242 382.97313648804845 777.5914370812712 380.66315151374783Q778.9699765014183 378.39042436161344 778.9699765014183 374.9627047223288L778.9699765014183 374.9627047223288Q778.9699765014183 373.919485701677 778.0012731250987 370.1937034850631Q776.995311926613 366.46792126844935 775.4304833956352 361.475373098187Q773.8656548646576 356.52008275009064 772.1517950450151 350.8196359586716Q770.4751930475389 345.11918916725244 768.873106694395 340.2011566413223Q767.3082781634172 335.28312411539207 766.3395747870976 331.743631009609Q765.370871410778 328.204137903826 765.370871410778 327.4217236383371L765.370871410778 327.4217236383371Q765.370871410778 325.1862543083688 766.1905434984332 321.79579249125027Q767.0474734082544 318.40533067413173 768.873106694395 315.90905658900044L768.873106694395 315.90905658900044Q769.5437474933855 314.9776110348471 771.8909902898523 312.63036823838036Q774.275490908485 310.28312544191374 777.4796636147729 307.33975749078877Q780.6838363210608 304.3591317174978 784.3351028933422 301.2294746555423Q788.0236272877897 298.09981759358664 791.6003782157392 295.4545122197909Q795.2143869658545 292.8464646681613 798.1577549169793 291.1326048485189Q801.1011228681042 289.45600285104274 802.9640139764111 289.45600285104274ZM863.5824906407171 245.41725705066787L863.5824906407171 245.41725705066787Q866.3395694810114 245.41725705066787 868.5750388109797 247.72724202496843Q870.810508140948 250.03722699926897 870.810508140948 254.21010308187638L870.810508140948 254.21010308187638Q870.810508140948 258.2712056979854 869.0221326769732 261.9969879145992Q867.2710150351649 265.722770131213 864.6257096613691 268.62888026017174Q862.0176621097393 271.49773256696426 858.8134894034516 273.21159238660664Q855.6093166971638 274.88819438408285 852.8522378568695 274.88819438408285L852.8522378568695 274.88819438408285Q851.6599875475532 274.88819438408285 850.281448127406 274.59013180675373Q848.940166529425 274.2548114072585 847.7479162201086 273.2861080309389Q846.5556659107923 272.28014683245317 845.7732516453033 270.56628701281085Q844.9908373798145 268.88968501533463 844.9908373798145 266.2443796415389L844.9908373798145 266.2443796415389Q844.9908373798145 262.4440817805928 846.6301815551245 258.71829956397903Q848.2695257304346 254.9925173473653 850.9520889263964 252.0491493962404Q853.6346521223585 249.10578144511553 856.9133404729786 247.28014815897475Q860.1920288235987 245.41725705066787 863.5824906407171 245.41725705066787ZM856.6525357178156 291.54244089234646L857.1741452281416 292.32485515783526Q855.7210901636621 294.29951973264065 853.7091677666907 298.62142710391254Q851.6599875475532 302.94333447518454 849.3127447510864 308.9045860217666Q846.9655019546198 314.86583756834864 844.4692278694885 321.79579249125027Q841.9729537843572 328.7257474141519 839.5511953435583 335.8792492700503Q837.1294369027593 343.0327511259487 835.0429988614557 349.7764169380197Q832.956560820152 356.52008275009064 831.317216644842 362.0714982528451Q829.6778724695317 367.6601715777658 828.7464269153785 371.49772726087804Q827.8522391833911 375.37254076615636 827.8522391833911 376.5647910754727L827.8522391833911 376.5647910754727Q827.8522391833911 379.0238073384378 829.7896459360303 379.0238073384378L829.7896459360303 379.0238073384378Q831.3544744670081 378.91203387193946 834.2605845959669 377.60801009612453Q837.1294369027593 376.3039863203097 840.8552191193731 373.658680946514Q844.6182591581531 371.05063339488436 849.0519399959236 366.98953077877536Q853.5228786558599 362.92842816266636 858.2173642487934 357.30249701557955L858.2173642487934 357.30249701557955L861.086216555586 359.9105445672092Q855.3485119420008 367.25033553393826 848.6048461299298 373.4723918356833Q841.8611803178588 379.69444813742837 835.2292879722864 384.3516759081955Q828.6346534488799 389.0089036789627 822.7106597244641 391.61695123059235Q816.8239238222144 394.224998782222 812.91185249477 394.224998782222L812.91185249477 394.224998782222Q811.8686334741179 394.224998782222 810.9371879199645 393.5171001610654Q810.0057423658112 392.8092015399088 809.3723593889869 392.13856074091825L809.3723593889869 392.13856074091825Q807.1368900590186 389.5305131892886 806.9506009481878 387.55584861448335Q806.764311837357 385.5811840396781 806.764311837357 383.49474599837436L806.764311837357 383.49474599837436Q806.764311837357 380.47686240291716 808.366398190501 373.397876191351Q810.0057423658112 366.3188899797848 812.5020164509423 357.37701265991177Q814.9982905360736 348.39787751787264 818.0906897758631 338.56181246601227Q821.1458311934863 328.7257474141519 824.0891991446111 320.3427374267709Q827.032567095736 311.9597274393899 829.4543255365351 306.07299153714007Q831.9133417995 300.18625563489036 833.2173655753148 298.994005325574L833.2173655753148 298.994005325574Q835.8254131269447 296.64676252910726 839.7374844543891 295.1564496424618Q843.6868136039997 293.62887893365007 847.4871114649458 292.8464646681613L847.4871114649458 292.8464646681613Q851.8090188362177 291.9522769361739 856.6525357178156 291.54244089234646L856.6525357178156 291.54244089234646ZM875.6540250225459 383.75555075353736L875.6540250225459 383.75555075353736Q882.5839799454474 383.75555075353736 890.0355443786749 376.86285365280185Q897.5243666340688 370.00741437423244 904.6033528456347 354.80622293044826L904.6033528456347 354.80622293044826L908.4036507065808 357.30249701557955Q904.8641576007977 365.536475714296 900.2069298300306 372.35465717069917Q895.5497020592633 379.17283862710235 890.1845756673396 384.01635550870026Q884.8194492754156 388.85987239029816 878.709166440169 391.5424355862601Q872.6361414270888 394.224998782222 866.3395694810114 394.224998782222L866.3395694810114 394.224998782222Q863.4707171742187 394.224998782222 860.56460704526 392.2503342074167Q857.6957547384674 390.31292745477754 855.3485119420008 387.29504385932034Q853.0012691455341 384.27716026386327 851.4736984367224 380.8121828024124Q849.9833855500768 377.34720534096164 849.9833855500768 374.1802904568399L849.9833855500768 374.1802904568399Q849.9833855500768 370.26821912939545 850.8775732820642 365.275670959133Q851.8090188362177 360.3203806110366 853.2620739006971 354.9552542191128Q854.6778711430103 349.5528700050229 856.3917309626526 344.33677490176353Q858.1055907822948 339.0834219763382 859.6704193132726 334.68699896073394Q861.2352478442505 330.32783376729583 862.427498153567 327.1609188831741Q863.5824906407171 324.03126182121855 864.1041001510431 322.98804280056663L864.1041001510431 322.98804280056663Q866.7494055248388 316.69147085448935 871.8537271615997 310.80473495223964Q876.9580487983607 304.9179990499898 883.2918785666039 300.3352869235549Q889.6629661570136 295.7153169749538 896.5184054355828 292.99549595682583Q903.4111025363183 290.23841711653154 909.7076744823956 290.23841711653154L909.7076744823956 290.23841711653154Q911.7941125236995 290.23841711653154 913.7687770985048 291.4679252480141Q915.74344167331 292.7346912016628 917.3082702042879 294.8956448872988Q918.8730987352657 297.05659857293483 919.7672864672528 299.9999665240597Q920.6987320214063 302.94333447518454 920.6987320214063 306.3337962923031L920.6987320214063 306.3337962923031Q920.6987320214063 311.438117929064 919.2084191347609 314.9776110348471Q917.6808484259492 318.5171041406302 915.4453790959809 320.93886258142913Q913.2471675881787 323.3606210222281 910.5646043922169 324.7391604423751Q907.8820411962548 326.1176998625223 905.460282755456 326.82559848367885Q903.0012664924908 327.57075492700164 901.2501488506824 327.7570440378323Q899.4990312088738 327.943333148663 898.977421698548 327.943333148663L898.977421698548 327.943333148663Q900.3932189408612 325.1862543083688 901.3246644950146 322.05659724641316Q902.218852227002 318.92694018445764 902.8149773816602 315.9835722333328Q903.4111025363183 313.0402042822079 903.597391647149 310.54393019707663Q903.8209385801459 308.04765611194546 903.8209385801459 306.3337962923031L903.8209385801459 306.3337962923031Q903.8209385801459 304.9179990499898 903.597391647149 303.3904283411782Q903.4111025363183 301.90011545453274 903.0012664924908 300.5960916787179Q902.6286882708295 299.2548100807369 901.9207896496729 298.472395815248Q901.1756332063502 297.68998154975907 900.1324141856984 297.68998154975907L900.1324141856984 297.68998154975907Q897.8969448557301 297.68998154975907 895.4379285927649 300.63334950088404Q892.9416545076336 303.5767174520089 890.4453804225026 308.56926562227136Q887.9491063373713 313.5618137925338 885.45283225224 319.97015920510955Q882.993815989275 326.37850461768517 880.7583466593068 333.3084595405868Q878.5228773293385 340.27567228565454 876.6227283988654 347.13111156422394Q874.7225794683924 354.02380866495935 873.2695244039131 359.83602892287684Q871.8537271615997 365.68550700296055 871.071312896111 370.00741437423244Q870.2888986306219 374.32932174550444 870.2888986306219 376.0431815651468L870.2888986306219 376.0431815651468Q870.2888986306219 379.8062216039267 871.7792115172675 381.780886178732Q873.2695244039131 383.75555075353736 875.6540250225459 383.75555075353736Z " fill="#243665" transform="matrix(0.9503651535251951,0,0,0.9503651535251951,0,-4.513419877144983)"/></g></svg>